<svg width="324" height="562" viewBox="0 0 324 562" fill="none" xmlns="http://www.w3.org/2000/svg">
<rect y="61" width="263" height="501" fill="#7ED3B1"/>
<g style="mix-blend-mode:multiply">
<path d="M19 106.5C19 100.149 24.1487 95 30.5 95H104.5C110.851 95 116 100.149 116 106.5V106.5C116 112.851 110.851 118 104.5 118H30.5C24.1487 118 19 112.851 19 106.5V106.5Z" fill="#20687E"/>
</g>
<g style="mix-blend-mode:multiply">
<rect x="19" y="464" width="97" height="23" rx="11.5" fill="#20687E"/>
</g>
<g style="mix-blend-mode:multiply">
<rect x="139" y="464" width="97" height="23" rx="11.5" fill="#20687E"/>
</g>
<g style="mix-blend-mode:multiply">
<rect x="19" y="172" width="217" height="23" rx="11.5" fill="#20687E"/>
</g>
<g style="mix-blend-mode:multiply">
<rect x="19" y="201" width="128" height="23" rx="11.5" fill="#20687E"/>
</g>
<g style="mix-blend-mode:multiply">
<rect x="19" y="250" width="217" height="11.5" rx="5.75" fill="#20687E"/>
</g>
<g style="mix-blend-mode:multiply">
<rect x="19" y="267" width="217" height="11.5" rx="5.75" fill="#20687E"/>
</g>
<g style="mix-blend-mode:multiply">
<rect x="19" y="285" width="144" height="12" rx="6" fill="#20687E"/>
</g>
<g style="mix-blend-mode:multiply">
<rect x="19" y="318" width="217" height="113" fill="#20687E"/>
</g>
<g style="mix-blend-mode:multiply">
<rect x="61" width="263" height="501" fill="#C4E5F2"/>
</g>
<g style="mix-blend-mode:hard-light">
<rect x="33.5" y="21.5" width="260" height="498" stroke="#20687E" stroke-width="3"/>
</g>
</svg>
